HIERARCHY
ROOT Hips
{
	OFFSET -0.001795 -0.223333 0.028219
	CHANNELS 6 Xposition Yposition Zposition Zrotation Yrotation Xrotation 
	JOINT LeftUpLeg
	{
		OFFSET 0.069520 -0.091406 -0.006815
		CHANNELS 3 Zrotation Yrotation Xrotation
		JOINT LeftLeg
		{
			OFFSET 0.034277 -0.375199 -0.004496
			CHANNELS 3 Zrotation Yrotation Xrotation
			JOINT LeftFoot
			{
				OFFSET -0.013596 -0.397961 -0.043693
				CHANNELS 3 Zrotation Yrotation Xrotation
				JOINT LeftToe
				{
					OFFSET 0.026358 -0.055791 0.119288
					CHANNELS 3 Zrotation Yrotation Xrotation
					End Site
					{
						OFFSET 0.000000 0.000000 0.000000
					}
				}
			}
		}
	}
	JOINT RightUpLeg
	{
		OFFSET -0.067670 -0.090522 -0.004320
		CHANNELS 3 Zrotation Yrotation Xrotation
		JOINT RightLeg
		{
			OFFSET -0.038290 -0.382569 -0.008850
			CHANNELS 3 Zrotation Yrotation Xrotation
			JOINT RightFoot
			{
				OFFSET 0.015774 -0.398415 -0.042312
				CHANNELS 3 Zrotation Yrotation Xrotation
				JOINT RightToe
				{
					OFFSET -0.025372 -0.048144 0.123348
					CHANNELS 3 Zrotation Yrotation Xrotation
					End Site
					{
						OFFSET 0.000000 0.000000 0.000000
					}
				}
			}
		}
	}
	JOINT Spine
	{
		OFFSET -0.002533 0.108963 -0.026696
		CHANNELS 3 Zrotation Yrotation Xrotation
		JOINT Spine1
		{
			OFFSET 0.005487 0.135180 0.001092
			CHANNELS 3 Zrotation Yrotation Xrotation
			JOINT Spine2
			{
				OFFSET 0.001457 0.052922 0.025425
				CHANNELS 3 Zrotation Yrotation Xrotation
				JOINT Neck
				{
					OFFSET -0.002778 0.213870 -0.042857
					CHANNELS 3 Zrotation Yrotation Xrotation
					JOINT Head
					{
						OFFSET 0.005152 0.064970 0.051349
						CHANNELS 3 Zrotation Yrotation Xrotation
						End Site
						{
							OFFSET 0.000000 0.000000 0.000000
						}
					}
				}
				JOINT LeftShoulder
				{
					OFFSET 0.078845 0.121749 -0.034090
					CHANNELS 3 Zrotation Yrotation Xrotation
					JOINT LeftArm
					{
						OFFSET 0.090977 0.030469 -0.008868
						CHANNELS 3 Zrotation Yrotation Xrotation
						JOINT LeftForeArm
						{
							OFFSET 0.259612 -0.012772 -0.027456
							CHANNELS 3 Zrotation Yrotation Xrotation
							JOINT LeftHand
							{
								OFFSET 0.249234 0.008986 -0.001171
								CHANNELS 3 Zrotation Yrotation Xrotation
								End Site
								{
									OFFSET 0.000000 0.000000 0.000000
								}
							}
						}
					}
				}
				JOINT RightShoulder
				{
					OFFSET -0.081759 0.118833 -0.038615
					CHANNELS 3 Zrotation Yrotation Xrotation
					JOINT RightArm
					{
						OFFSET -0.096012 0.032551 -0.009143
						CHANNELS 3 Zrotation Yrotation Xrotation
						JOINT RightForeArm
						{
							OFFSET -0.253742 -0.013329 -0.021401
							CHANNELS 3 Zrotation Yrotation Xrotation
							JOINT RightHand
							{
								OFFSET -0.255298 0.007772 -0.005559
								CHANNELS 3 Zrotation Yrotation Xrotation
								End Site
								{
									OFFSET 0.000000 0.000000 0.000000
								}
							}
						}
					}
				}
			}
		}
	}
}
MOTION
Frames: 13
Frame Time: 0.050000
0.057482 0.416385 0.038982 -1.943987 -4.481711 -1.139579 20.941588 12.255989 -84.038195 -21.297407 40.462481 121.920617 16.702014 41.420508 -19.336246 0.000000 0.000000 0.000000 -26.939353 -9.782886 -83.034478 32.561013 -47.870313 108.990854 -21.244289 -51.338069 -7.315253 0.000000 0.000000 0.000000 -0.770112 -1.040847 88.402254 2.657120 0.240126 -32.540154 9.277481 17.939589 25.015175 5.505598 2.345304 -37.278526 0.000000 0.000000 0.000000 -20.391720 -28.240389 9.096673 -26.306232 -25.660529 1.620824 22.893939 -69.915869 -16.546174 0.000000 0.000000 0.000000 -21.052681 40.139086 5.286797 -6.022268 5.556417 0.263511 -25.652587 16.474249 -1.924640 0.000000 0.000000 0.000000 
0.057127 0.432027 0.039168 -1.503310 -4.544209 -0.985177 20.216062 11.337069 -82.416061 -21.037100 38.455885 119.967881 16.480335 40.157276 -18.468186 0.000000 0.000000 0.000000 -26.122653 -9.004353 -82.793348 30.650723 -44.942907 109.195443 -21.705457 -49.466349 -3.435251 0.000000 0.000000 0.000000 0.166837 -1.847263 87.087192 2.472301 0.246510 -31.884682 8.519512 16.118139 23.831263 4.951205 2.265972 -36.861202 0.000000 0.000000 0.000000 -18.751085 -27.722112 9.323262 -25.932893 -27.080595 1.657264 28.233586 -67.104474 -19.040839 0.000000 0.000000 0.000000 -20.881995 39.256610 5.305054 -4.713715 5.318961 0.169706 -27.152546 18.124885 -2.461270 0.000000 0.000000 0.000000 
0.056872 0.451141 0.039576 -1.261351 -4.976850 -0.833273 19.446941 10.564297 -80.272878 -19.835456 35.096124 118.417131 15.274066 36.727634 -18.504171 0.000000 0.000000 0.000000 -25.292604 -7.907660 -82.086866 29.453882 -42.145193 108.257433 -21.869783 -47.322099 0.366229 0.000000 0.000000 0.000000 1.207296 -2.481233 85.450555 2.984304 0.148600 -31.743298 7.443030 14.414779 23.572384 4.244816 2.345272 -37.435084 0.000000 0.000000 0.000000 -18.063128 -27.618551 9.747914 -25.341284 -28.541332 1.675353 30.973565 -63.672124 -19.231424 0.000000 0.000000 0.000000 -20.464961 39.078563 5.482155 -2.986646 5.132552 0.038316 -28.902210 20.346759 -3.240472 0.000000 0.000000 0.000000 
0.056794 0.474998 0.040393 -0.842490 -4.976966 -0.518586 18.153426 9.102393 -78.070223 -19.310336 32.189598 115.214282 15.304403 35.863846 -16.874923 0.000000 0.000000 0.000000 -24.689250 -7.228856 -80.827263 28.238638 -38.974858 106.755330 -21.452912 -44.412058 4.439468 0.000000 0.000000 0.000000 2.275229 -3.354717 83.833041 2.562088 0.208096 -31.272661 7.014144 12.256733 22.925231 3.777098 2.227274 -37.606645 0.000000 0.000000 0.000000 -16.438797 -26.686189 9.736394 -26.468393 -29.760513 1.887276 33.669530 -60.776121 -19.452268 0.000000 0.000000 0.000000 -20.285372 38.054842 5.510343 -0.871080 6.552366 -0.204710 -29.457654 21.635442 -3.737319 0.000000 0.000000 0.000000 
0.056872 0.502246 0.041342 -0.560785 -5.771493 0.000278 17.201762 8.409811 -75.467231 -18.336588 29.149062 112.293829 14.423478 32.914044 -15.811342 0.000000 0.000000 0.000000 -24.232711 -6.106925 -78.823198 28.374867 -36.778121 103.691691 -20.381361 -42.222445 5.222999 0.000000 0.000000 0.000000 2.896240 -3.304047 81.502229 3.108424 0.084723 -30.997992 6.492222 11.090115 23.331028 3.200668 2.316509 -38.257238 0.000000 0.000000 0.000000 -15.559628 -25.787857 9.565085 -28.337114 -30.038039 2.058729 33.746863 -58.287356 -18.257330 0.000000 0.000000 0.000000 -19.253887 37.710441 5.884030 0.762701 7.845248 -0.365269 -31.023801 22.107150 -4.204993 0.000000 0.000000 0.000000 
0.057121 0.534300 0.042440 -0.059080 -6.308904 0.627522 16.199293 7.517873 -72.613801 -17.295135 25.807118 108.215784 13.026901 28.587257 -14.264284 0.000000 0.000000 0.000000 -23.559519 -5.024901 -76.564377 27.906572 -33.789973 100.608846 -19.122361 -39.728916 6.272155 0.000000 0.000000 0.000000 3.584795 -3.420133 78.651585 2.980806 0.051427 -29.966462 6.341650 10.155755 22.716032 3.166734 2.165879 -38.279452 0.000000 0.000000 0.000000 -15.503226 -24.363715 9.134592 -30.774984 -29.521150 2.269252 31.458406 -57.660816 -16.410164 0.000000 0.000000 0.000000 -18.149063 36.954891 6.304983 3.521772 10.613733 -0.549035 -32.473532 23.033198 -4.765663 0.000000 0.000000 0.000000 
0.057855 0.567710 0.043756 0.339660 -6.541463 1.652620 14.967854 6.327095 -69.677669 -16.568832 23.232770 103.787586 11.986679 25.649614 -14.702951 0.000000 0.000000 0.000000 -23.310736 -4.454965 -73.863954 28.149933 -31.530023 96.583408 -17.614089 -37.588559 5.507191 0.000000 0.000000 0.000000 4.363707 -3.750883 75.504763 3.413645 -0.037339 -29.753945 6.318522 10.092738 23.108755 2.821165 2.288049 -38.822881 0.000000 0.000000 0.000000 -16.403248 -23.253388 8.752603 -33.255171 -28.892095 2.421116 27.800942 -56.021264 -13.643418 0.000000 0.000000 0.000000 -16.429009 36.924042 7.004408 5.053439 12.103659 -0.600880 -32.882133 23.585375 -5.045194 0.000000 0.000000 0.000000 
0.059313 0.601391 0.045467 1.021184 -6.596154 1.980133 13.285298 4.782513 -66.373760 -15.814699 20.607964 98.557674 11.454462 23.940568 -13.029411 0.000000 0.000000 0.000000 -22.783617 -3.809741 -70.554836 27.653950 -28.335704 92.411851 -17.198205 -36.624443 6.677588 0.000000 0.000000 0.000000 5.153084 -4.131736 72.491410 3.483725 -0.074599 -29.258281 6.348860 10.070633 22.982398 2.865221 2.170804 -37.569543 0.000000 0.000000 0.000000 -18.100955 -22.489446 8.535163 -35.965384 -27.237392 2.378135 23.499385 -54.441618 -10.761574 0.000000 0.000000 0.000000 -14.715614 36.326884 7.553415 7.555029 14.672955 -0.576971 -32.590166 23.893953 -5.110849 0.000000 0.000000 0.000000 
0.061345 0.630977 0.047472 1.437541 -6.452024 2.589604 11.755206 3.390996 -63.138587 -14.890311 18.279653 94.326882 10.401995 21.117601 -15.143201 0.000000 0.000000 0.000000 -22.789170 -3.642409 -67.189783 27.670086 -26.300558 88.492555 -15.541714 -34.645837 4.248332 0.000000 0.000000 0.000000 5.761223 -4.432566 69.101946 4.304929 -0.243260 -29.009379 6.506470 10.897973 22.941606 2.247441 2.475350 -36.691155 0.000000 0.000000 0.000000 -21.133403 -22.249122 8.411375 -37.083754 -24.517847 1.889096 17.756545 -52.862597 -7.485017 0.000000 0.000000 0.000000 -11.530639 36.567968 8.840788 9.694168 16.527412 -0.493600 -31.357181 23.219389 -4.734191 0.000000 0.000000 0.000000 
0.063393 0.661139 0.049559 2.002325 -6.340024 3.033290 10.210137 2.139455 -59.738507 -14.487455 16.433348 88.677916 10.181683 20.510001 -15.078825 0.000000 0.000000 0.000000 -22.703052 -3.396954 -63.681445 26.847331 -23.562942 84.811754 -13.382339 -31.305878 1.810044 0.000000 0.000000 0.000000 6.450986 -4.669724 65.017011 4.345798 -0.315840 -27.968542 6.748998 11.101178 22.262508 1.828557 2.563887 -34.990470 0.000000 0.000000 0.000000 -23.532624 -21.876091 8.328446 -38.536493 -21.385735 1.234807 11.211639 -51.632467 -4.017205 0.000000 0.000000 0.000000 -7.634536 36.012293 10.230104 12.577195 18.257719 -0.347007 -30.262932 22.479882 -4.401828 0.000000 0.000000 0.000000 
0.064712 0.689883 0.051494 2.382481 -5.877230 3.199073 8.828376 0.989637 -56.188550 -13.536855 14.164565 83.898694 9.051760 17.316456 -16.069797 0.000000 0.000000 0.000000 -22.504615 -3.257166 -60.156443 26.670268 -21.750992 80.781612 -12.769633 -30.248619 1.362969 0.000000 0.000000 0.000000 6.540746 -4.627668 61.101798 5.473825 -0.585011 -27.291068 6.799141 11.618139 22.401768 0.836990 3.018168 -33.810026 0.000000 0.000000 0.000000 -25.607196 -20.766355 7.596729 -39.373030 -19.223854 0.722413 5.126119 -49.113087 -0.997007 0.000000 0.000000 0.000000 -3.909366 35.108046 11.370873 16.138836 19.604568 -0.126792 -29.050019 21.482625 -3.963611 0.000000 0.000000 0.000000 
0.065259 0.719735 0.053474 2.596899 -5.405488 3.597214 7.853206 0.205532 -52.841641 -12.491948 11.825873 78.438348 7.594024 13.228564 -15.683731 0.000000 0.000000 0.000000 -21.712028 -2.824205 -56.606529 25.372603 -18.947267 76.461788 -11.599776 -27.963265 0.742184 0.000000 0.000000 0.000000 6.736498 -4.569133 56.393364 6.458066 -0.926057 -25.502754 6.528579 11.778835 21.470649 0.459805 3.142977 -32.653179 0.000000 0.000000 0.000000 -27.382420 -20.029337 7.145557 -39.807682 -16.125264 -0.070526 0.555010 -46.737100 1.054406 0.000000 0.000000 0.000000 0.859552 33.757560 12.759755 19.383362 19.847866 -0.027563 -27.711775 20.837141 -3.614009 0.000000 0.000000 0.000000 
0.065328 0.748122 0.055779 2.824155 -4.958050 3.645191 6.849621 -0.466795 -49.570322 -11.755515 10.067726 73.242664 6.662562 11.145066 -13.599851 0.000000 0.000000 0.000000 -20.945296 -2.450415 -53.392950 24.296927 -16.695282 72.254088 -11.275365 -26.958299 2.669263 0.000000 0.000000 0.000000 6.040341 -4.067494 52.798798 7.864720 -1.238819 -25.280684 6.592029 11.439930 21.680066 -0.306285 3.450032 -32.669657 0.000000 0.000000 0.000000 -27.991706 -18.636776 6.417050 -40.527024 -14.144343 -0.740037 -2.813916 -44.636725 2.441642 0.000000 0.000000 0.000000 3.983490 31.875602 13.127860 24.630450 19.039106 0.023271 -26.568669 22.148843 -3.665622 0.000000 0.000000 0.000000 
